<?xml version="1.0" encoding="UTF-8" standalone="no"?>
<!-- Created with Inkscape (http://www.inkscape.org/) -->

<svg
   xmlns:dc="http://purl.org/dc/elements/1.1/"
   xmlns:cc="http://creativecommons.org/ns#"
   xmlns:rdf="http://www.w3.org/1999/02/22-rdf-syntax-ns#"
   xmlns:svg="http://www.w3.org/2000/svg"
   xmlns="http://www.w3.org/2000/svg"
   version="1.1"
   width="22.53125"
   height="32.59375"
   id="svg3966">
  <defs
     id="defs3968" />
  <metadata
     id="metadata3971">
    <rdf:RDF>
      <cc:Work
         rdf:about="">
        <dc:format>image/svg+xml</dc:format>
        <dc:type
           rdf:resource="http://purl.org/dc/dcmitype/StillImage" />
        <dc:title></dc:title>
      </cc:Work>
    </rdf:RDF>
  </metadata>
  <g
     transform="translate(-650.88025,-523.55255)"
     id="layer1">
    <g
       id="text3996"
       style="font-size:40px;font-style:normal;font-weight:normal;line-height:125%;letter-spacing:0px;word-spacing:0px;fill:#000000;fill-opacity:1;stroke:none;font-family:Sans">
      <path
         d="m 542.51306,558.19318 c -1.92709,2e-5 -3.45053,0.75522 -4.57031,2.26562 -1.1198,1.49741 -1.67969,3.5547 -1.67969,6.17188 0,2.61719 0.55338,4.68099 1.66016,6.1914 1.11978,1.4974 2.64973,2.2461 4.58984,2.2461 1.91405,0 3.43098,-0.75521 4.55078,-2.26563 1.11978,-1.51041 1.67967,-3.5677 1.67969,-6.17187 -2e-5,-2.59114 -0.55991,-4.64192 -1.67969,-6.15235 -1.1198,-1.52342 -2.63673,-2.28513 -4.55078,-2.28515 m 0,-3.04688 c 3.12499,2e-5 5.57941,1.01565 7.36328,3.04688 1.78384,2.03126 2.67576,4.84376 2.67578,8.4375 -2e-5,3.58073 -0.89194,6.39323 -2.67578,8.4375 -1.78387,2.03125 -4.23829,3.04687 -7.36328,3.04687 -3.13803,0 -5.59896,-1.01562 -7.38281,-3.04687 -1.77084,-2.04427 -2.65625,-4.85677 -2.65625,-8.4375 0,-3.59374 0.88541,-6.40624 2.65625,-8.4375 1.78385,-2.03123 4.24478,-3.04686 7.38281,-3.04688"
         id="path4020" />
    </g>
  </g>
  <g
     transform="translate(-118.40625,31.59375)"
     id="text2985"
     style="font-size:40px;font-style:normal;font-weight:normal;line-height:125%;letter-spacing:0px;word-spacing:0px;fill:#000000;fill-opacity:1;stroke:none;font-family:Sans">
    <path
       d="m 12.594015,-35.967294 c -0.468778,-0.104139 -1.028673,-0.143201 -1.679687,-0.117187 -0.625027,2.7e-5 -1.2500262,0.07815 -1.8750004,0.234375 -0.6250245,0.130235 -1.1849198,0.338568 -1.6796875,0.625 -0.4948147,0.286485 -0.833356,0.664088 -1.015625,1.132812 -0.104189,1.119816 -0.104189,2.343774 0,3.671875 0.1041441,1.302104 0.2213315,2.643249 0.3515625,4.023438 0.156227,1.380225 0.299456,2.773452 0.4296875,4.179687 0.1301849,1.380221 0.1562266,2.721365 0.078125,4.023438 -0.052107,1.302092 -0.2474189,2.513028 -0.5859375,3.632812 -0.3385641,1.119797 -0.8854385,2.109379 -1.640625,2.96875 -0.7552287,0.859378 -1.7708527,1.549481 -3.046875,2.0703128 -1.27605846,0.5208338 -2.87761935,0.8203127 -4.8046875,0.8984375 -0.6510543,-0.052083 -1.4323035,-0.1822914 -2.34375,-0.390625 -0.8854267,-0.2343743 -1.8099049,-0.5338531 -2.7734375,-0.8984375 -0.9375072,-0.3906228 -1.8619854,-0.8333308 -2.7734376,-1.3281248 -0.885421,-0.52083 -1.66667,-1.106767 -2.34375,-1.757813 -0.677086,-0.677078 -1.197918,-1.419265 -1.5625,-2.226562 -0.338543,-0.807284 -0.416668,-1.679679 -0.234375,-2.617188 0.18229,-0.390615 0.299478,-0.638011 0.351563,-0.742187 0.07812,-0.104157 0.169269,-0.07812 0.273437,0.07813 0.104165,0.15626 0.260415,0.429697 0.46875,0.820312 0.208331,0.390634 0.546872,0.898446 1.015625,1.523438 1.067704,1.432298 2.265619,2.604172 3.5937501,3.515625 1.3281167,0.88542 2.6692612,1.497398 4.0234375,1.835937 1.3541544,0.312502 2.6692572,0.351565 3.9453125,0.117188 1.27602549,-0.234373 2.4088369,-0.742185 3.3984375,-1.523438 1.0156057,-0.807287 1.8228965,-1.874994 2.421875,-3.203125 0.598937,-1.354158 0.8984159,-2.981761 0.8984375,-4.882812 -2.16e-5,-0.208322 -0.026063,-0.638009 -0.078125,-1.289063 -0.026063,-0.651028 -0.078146,-1.419256 -0.15625,-2.304687 -0.052105,-0.885401 -0.1302296,-1.83592 -0.234375,-2.851563 -0.078146,-1.015605 -0.1823126,-1.979146 -0.3125,-2.890625 -0.1041874,-0.911436 -0.2343956,-1.705706 -0.390625,-2.382812 -0.1562703,-0.703101 -0.3125201,-1.184871 -0.46875,-1.445313 -0.1041865,-0.130183 -0.4427279,-0.117162 -1.015625,0.03906 -0.5468934,0.130233 -1.2239761,0.338566 -2.03124998,0.625 -0.78126617,0.286482 -1.65366113,0.598982 -2.61718752,0.9375 -0.9375134,0.312523 -1.83595,0.559918 -2.6953125,0.742187 -0.8333441,0.182314 -1.5755309,0.260439 -2.2265625,0.234375 -0.6510504,-0.02602 -1.0807375,-0.260394 -1.2890625,-0.703125 -0.1041747,-0.20831 -0.1171955,-0.37758 -0.039063,-0.507812 0.078117,-0.156226 0.1822834,-0.273414 0.3125,-0.351563 0.1562415,-0.104142 0.3255121,-0.182267 0.5078125,-0.234375 0.1822826,-0.05206 0.3385324,-0.104142 0.46875,-0.15625 0.5989484,-0.182267 1.3671768,-0.351538 2.3046875,-0.507812 0.9374874,-0.156225 1.9010281,-0.364558 2.890625,-0.625 1.01560944,-0.260391 2.00519178,-0.585912 2.96875,-0.976563 0.9635232,-0.41664 1.7838349,-0.963514 2.4609375,-1.640625 -0.052103,-0.468721 -0.143249,-1.067679 -0.2734375,-1.796875 -0.1302279,-0.755177 -0.2083528,-1.536427 -0.234375,-2.34375 -1.95e-5,-0.807258 0.091126,-1.588508 0.2734375,-2.34375 0.2083134,-0.755173 0.6249796,-1.380172 1.25,-1.875 0.078104,-0.05205 0.1952913,-0.09111 0.3515625,-0.117187 0.1822701,-0.02601 0.3775824,-0.03903 0.5859375,-0.03906 0.2083112,3.7e-5 0.3906027,0.01306 0.546875,0.03906 0.182269,0.02608 0.3124772,0.06514 0.390625,0.117187 -0.4166891,0.807328 -0.7422096,1.536494 -0.9765625,2.1875 -0.208355,0.625034 -0.351584,1.250033 -0.4296875,1.875 -0.052105,0.59899 -0.039084,1.237011 0.039063,1.914063 0.078103,0.677113 0.1952908,1.471383 0.3515625,2.382812 0.2603946,-0.0781 0.7161233,-0.208305 1.3671875,-0.390625 0.6510178,-0.208304 1.3411213,-0.403617 2.0703125,-0.585937 0.7291406,-0.208304 1.4192439,-0.390596 2.0703129,-0.546875 0.651013,-0.182262 1.106742,-0.299449 1.367187,-0.351563 l 0,2.5"
       id="path2990"
       style="font-variant:normal;font-stretch:normal;font-family:Just Realize;-inkscape-font-specification:Just Realize" />
    <path
       d="m 22.398703,-18.232919 c -0.260428,2.552091 -0.716157,4.570318 -1.367188,6.054688 -0.625009,1.458335 -1.341154,2.4739593 -2.148437,3.0468748 -0.781257,0.5468751 -1.588548,0.7161457 -2.421875,0.5078125 -0.833338,-0.208333 -1.588546,-0.7031242 -2.265625,-1.4843753 -0.651044,-0.807289 -1.171877,-1.848955 -1.5625,-3.125 -0.390626,-1.276035 -0.520835,-2.682284 -0.390625,-4.21875 0.18229,-2.52603 0.468748,-4.59634 0.859375,-6.210937 0.390622,-1.640608 0.83333,-2.903628 1.328125,-3.789063 0.494788,-0.911438 1.028641,-1.510396 1.601562,-1.796875 0.572911,-0.286437 1.145827,-0.351541 1.71875,-0.195312 0.57291,0.156271 1.119784,0.481791 1.640625,0.976562 0.520825,0.46877 0.989574,1.015644 1.40625,1.640625 0.416657,0.625018 0.755198,1.276059 1.015625,1.953125 0.260406,0.677099 0.403635,1.276057 0.429688,1.796875 -1.1e-5,0.02606 0.01301,0.24741 0.03906,0.664063 0.02603,0.41668 0.05207,0.89845 0.07813,1.445312 0.02603,0.546887 0.03905,1.080741 0.03906,1.601563 0.02603,0.520843 0.02603,0.898447 0,1.132812 m -5.976563,7.734375 c 0.989577,0.07813 1.796868,-0.260414 2.421875,-1.015625 0.651033,-0.781246 1.132804,-1.770828 1.445313,-2.96875 0.31249,-1.197909 0.46874,-2.513012 0.46875,-3.945312 0.02603,-1.432281 -0.07813,-2.773425 -0.3125,-4.023438 -0.234384,-1.276026 -0.585947,-2.356754 -1.054688,-3.242187 -0.468758,-0.885399 -1.015632,-1.38019 -1.640625,-1.484375 -0.442714,-0.07811 -0.84636,0.104185 -1.210937,0.546875 -0.338547,0.416684 -0.651047,1.015642 -0.9375,1.796875 -0.260421,0.755224 -0.481775,1.627619 -0.664063,2.617187 -0.156253,0.989596 -0.273441,2.018241 -0.351562,3.085938 -0.07813,1.041676 -0.10417,2.083342 -0.07813,3.125 0.02604,1.015631 0.117184,1.927089 0.273437,2.734375 0.156246,0.807295 0.364579,1.471357 0.625,1.992187 0.286454,0.494794 0.624995,0.755211 1.015625,0.78125"
       id="path2992"
       style="font-variant:normal;font-stretch:normal;font-family:Just Realize;-inkscape-font-specification:Just Realize" />
    <g
       id="text2994"
       style="fill:#000000;font-family:Sans">
      <path
         d="m 37.466236,-66.116261 c 0.729161,-0.182258 1.210932,-0.104134 1.445313,0.234375 0.26041,0.312532 0.403639,0.703157 0.429687,1.171875 0.02604,0.468781 -6e-6,0.950551 -0.07813,1.445313 -0.05209,0.468779 -0.02605,0.768258 0.07813,0.898437 1.6927,-1.041636 3.072907,-1.445282 4.140625,-1.210937 1.067697,0.208363 1.927071,0.911487 2.578125,2.109375 0.67707,1.171902 1.197902,2.747421 1.5625,4.726562 0.39061,1.979188 0.716131,4.192728 0.976563,6.640625 0.286442,2.42189 0.5729,5.000012 0.859375,7.734375 0.312483,2.734382 0.729149,5.442712 1.25,8.125 -0.416684,0.546876 -0.794288,0.677084 -1.132813,0.390625 -0.338558,-0.286457 -0.651058,-0.820311 -0.9375,-1.601562 -0.260432,-0.781247 -0.507828,-1.718746 -0.742187,-2.8125 -0.208349,-1.093744 -0.39064,-2.161452 -0.546875,-3.203125 -0.156265,-1.041658 -0.299494,-1.966136 -0.429688,-2.773438 -0.10418,-0.80728 -0.182305,-1.315092 -0.234375,-1.523437 -0.781263,0.208345 -1.601575,0.429699 -2.460937,0.664062 -0.833344,0.208345 -1.653656,0.429699 -2.460938,0.664063 -0.8073,0.208344 -1.562507,0.416677 -2.265625,0.625 -0.703131,0.208343 -1.302089,0.416676 -1.796875,0.625 -0.390629,1.796883 -0.703129,3.372402 -0.9375,4.726562 -0.208337,1.354171 -0.442712,2.44792 -0.703125,3.28125 -0.234378,0.807293 -0.533857,1.328126 -0.898437,1.5625 -0.338544,0.234375 -0.833335,0.14323 -1.484375,-0.273437 -0.02604,-0.390624 0.05208,-1.080728 0.234375,-2.070313 0.18229,-1.015621 0.403644,-2.26562 0.664062,-3.75 0.286456,-1.484367 0.585935,-3.190094 0.898438,-5.117187 0.338538,-1.92707 0.651038,-4.010401 0.9375,-6.25 0.286454,-2.265605 0.520829,-4.661436 0.703125,-7.1875 0.208329,-2.526014 0.325516,-5.143199 0.351562,-7.851563 m 1.09375,20.351563 c 0.338536,0.0521 0.807285,0.02605 1.40625,-0.07813 0.624992,-0.130196 1.302075,-0.299467 2.03125,-0.507813 0.729157,-0.20832 1.445302,-0.429674 2.148438,-0.664062 0.729154,-0.234361 1.367174,-0.442694 1.914062,-0.625 0.234362,-0.520819 0.325507,-1.34113 0.273438,-2.460938 -0.0521,-1.145815 -0.208347,-2.369772 -0.46875,-3.671875 -0.234388,-1.302061 -0.559909,-2.578102 -0.976563,-3.828125 -0.416678,-1.249974 -0.898448,-2.265598 -1.445312,-3.046875 -0.520844,-0.781222 -1.09376,-1.210909 -1.71875,-1.289062 -0.598967,-0.0781 -1.197925,0.416695 -1.796875,1.484375 l -1.367188,14.6875"
         id="path2999"
         style="font-variant:normal;font-stretch:normal;font-family:Just Realize;-inkscape-font-specification:Just Realize" />
      <g
         id="text3001"
         style="font-size:40px;font-style:normal;font-weight:normal;line-height:125%;letter-spacing:0px;word-spacing:0px;fill:#000000;fill-opacity:1;stroke:none;font-family:Sans">
        <path
           d="m 63.847988,-47.421211 c 0.104166,-1.197914 0.16927,-2.330726 0.195313,-3.398438 0.02604,-1.067702 0.03906,-2.161451 0.03906,-3.28125 -1e-6,-1.119782 -1e-6,-2.304677 0,-3.554687 0.02604,-1.249987 0.0651,-2.669257 0.117188,-4.257813 0.05208,-1.588524 0.130207,-3.385397 0.234375,-5.390625 0.130206,-2.031227 0.312498,-4.361953 0.546875,-6.992187 0.286456,-1.015596 0.742184,-1.770804 1.367187,-2.265625 0.651038,-0.520803 1.341141,-0.833302 2.070313,-0.9375 0.755202,-0.104135 1.497389,-0.02601 2.226562,0.234375 0.7552,0.260447 1.3802,0.664093 1.875,1.210937 1.718739,1.74482 3.072904,3.554714 4.0625,5.429688 1.015611,1.875022 1.718735,3.75002 2.109375,5.625 0.416651,1.848975 0.546859,3.658869 0.390625,5.429687 -0.130224,1.770845 -0.481786,3.43751 -1.054687,5 -0.572931,1.536465 -1.34116,2.929693 -2.304688,4.179688 -0.963553,1.223961 -2.057302,2.226564 -3.28125,3.007812 -0.833342,0.364584 -1.692716,0.546876 -2.578125,0.546875 -0.885422,10e-7 -1.64063,-0.130207 -2.265625,-0.390625 -0.598962,-0.286457 -0.989587,-0.677081 -1.171875,-1.171875 -0.182295,-0.494789 0.02604,-1.067705 0.625,-1.71875 0.234371,0.364587 0.585933,0.651045 1.054688,0.859375 0.494786,0.182295 1.028639,0.26042 1.601562,0.234375 0.57291,-0.02604 1.158846,-0.156247 1.757813,-0.390625 0.598949,-0.234371 1.132803,-0.598954 1.601562,-1.09375 1.718738,-2.031243 2.864571,-4.075512 3.4375,-6.132812 0.598944,-2.083321 0.807278,-4.075506 0.625,-5.976563 -0.156264,-1.901023 -0.611992,-3.671855 -1.367187,-5.3125 -0.729179,-1.640601 -1.549491,-3.033829 -2.460938,-4.179687 -0.911468,-1.171848 -1.822925,-2.044243 -2.734375,-2.617188 -0.885423,-0.598929 -1.575527,-0.794241 -2.070312,-0.585937 -0.442714,0.18232 -0.807297,0.664091 -1.09375,1.445312 -0.260421,0.781277 -0.481775,1.78388 -0.664063,3.007813 -0.182295,1.19794 -0.325524,2.552105 -0.429687,4.0625 -0.07813,1.510436 -0.143233,3.072934 -0.195313,4.6875 -0.02604,1.614597 -0.03907,3.2422 -0.03906,4.882812 -3e-6,1.614593 -0.01302,3.138029 -0.03906,4.570313 -0.02604,1.432297 -0.06511,2.721358 -0.117187,3.867187 -0.02604,1.119793 -0.09115,1.992188 -0.195313,2.617188 -0.312502,0.208333 -0.572919,0.286458 -0.78125,0.234375 -0.208335,-0.02604 -0.390626,-0.117188 -0.546875,-0.273438 -0.130209,-0.182291 -0.247397,-0.377603 -0.351562,-0.585937 -0.07813,-0.234374 -0.14323,-0.442707 -0.195313,-0.625"
           id="path3006"
           style="font-variant:normal;font-stretch:normal;font-family:Just Realize;-inkscape-font-specification:Just Realize" />
      </g>
      <g
         id="text3008"
         style="font-size:40px;font-style:normal;font-weight:normal;line-height:125%;letter-spacing:0px;word-spacing:0px;fill:#000000;fill-opacity:1;stroke:none;font-family:Sans">
        <path
           d="m 96.245361,-48.21703 c -0.05209,-0.07812 -0.07813,-0.390624 -0.07813,-0.9375 0.02603,-0.572914 0.05208,-1.249997 0.07813,-2.03125 0.05208,-0.807287 0.104158,-1.666661 0.15625,-2.578125 0.07812,-0.911451 0.14322,-1.757804 0.195313,-2.539062 0.05207,-0.807282 0.09114,-1.471344 0.117187,-1.992188 0.05207,-0.546863 0.07812,-0.846342 0.07813,-0.898437 l -6.757812,0.9375 0.625,-1.25 6.25,-1.25 c -0.05209,-0.781236 -0.05209,-1.744777 0,-2.890625 0.05207,-1.145816 0.07811,-2.31769 0.07813,-3.515625 -1e-5,-1.223938 -0.03907,-2.382791 -0.117188,-3.476563 -0.07813,-1.093725 -0.273446,-1.96612 -0.585937,-2.617187 -0.468758,0.338567 -1.067716,0.598983 -1.796875,0.78125 -0.703131,0.156275 -1.432297,0.273462 -2.1875,0.351562 -0.755213,0.05211 -1.471358,0.05211 -2.148438,0 -0.677085,-0.05206 -1.223959,-0.143204 -1.640625,-0.273437 -0.390625,-0.130183 -0.598958,-0.286433 -0.625,-0.46875 0,-0.208308 0.273437,-0.429662 0.820313,-0.664063 0.572915,-0.26039 1.484372,-0.520806 2.734375,-0.78125 1.276036,-0.260389 2.994785,-0.533826 5.15625,-0.820312 l 0,-6.25 c -9e-6,-0.182258 0.104157,-0.325487 0.3125,-0.429688 0.234365,-0.130174 0.481761,-0.208298 0.742187,-0.234375 0.286448,-0.02601 0.546865,0.01306 0.78125,0.117188 0.234364,0.104201 0.351552,0.286492 0.351563,0.546875 l 0,5.625 c 0.49478,0.104195 1.249986,0.02607 2.265626,-0.234375 1.01561,-0.260388 2.14842,-0.598929 3.39844,-1.015625 1.24998,-0.416637 2.53904,-0.846324 3.86718,-1.289063 1.35415,-0.468718 2.59113,-0.859343 3.71094,-1.171875 1.14581,-0.312467 2.10935,-0.494759 2.89063,-0.546875 0.78122,-0.05205 1.23695,0.11722 1.36718,0.507813 l -1.28906,1.992187 c -0.52086,-0.182261 -1.22398,-0.221324 -2.10937,-0.117187 -0.88544,0.104197 -1.86201,0.286488 -2.92969,0.546875 -1.06773,0.260446 -2.1745,0.585966 -3.32031,0.976562 -1.14586,0.364612 -2.2396,0.729195 -3.28125,1.09375 -1.04169,0.364611 -1.96616,0.716173 -2.77344,1.054688 -0.807305,0.312526 -1.406263,0.546901 -1.796876,0.703125 -0.02605,0.416692 -0.02605,0.976587 0,1.679687 0.02603,0.703149 0.06509,1.471377 0.117187,2.304688 0.05207,0.807312 0.104155,1.627624 0.15625,2.460937 0.05207,0.833352 0.104155,1.601581 0.15625,2.304688 0.05207,0.677099 0.09113,1.250016 0.117188,1.71875 0.05207,0.442723 0.07811,0.703139 0.07813,0.78125 0.807281,0.02606 1.809891,-0.07811 3.007821,-0.3125 1.1979,-0.23436 2.43487,-0.559881 3.71093,-0.976563 1.27603,-0.442692 2.48696,-0.976545 3.63282,-1.601562 1.14581,-0.624982 2.07028,-1.328106 2.77343,-2.109375 0.7031,0.156269 1.13279,0.377623 1.28907,0.664062 0.15622,0.286477 0.15622,0.585956 0,0.898438 -0.15628,0.312517 -0.44274,0.638038 -0.85938,0.976562 -0.39065,0.312517 -0.79429,0.611996 -1.21094,0.898438 -0.41669,0.260432 -0.79429,0.481786 -1.13281,0.664062 -0.33856,0.156266 -0.53388,0.247411 -0.58594,0.273438 -0.41668,0.156265 -1.14585,0.416681 -2.1875,0.78125 -1.01564,0.338556 -2.10939,0.716159 -3.28125,1.132812 -1.17189,0.390638 -2.27866,0.768242 -3.32031,1.132813 -1.01564,0.338553 -1.731787,0.572928 -2.148441,0.703125 l -0.03906,10.664062 c -1.1e-5,0.364584 -0.14324,0.572917 -0.429687,0.625 -0.286469,0.07813 -0.598969,0.07813 -0.9375,0 -0.338552,-0.07812 -0.664072,-0.182291 -0.976563,-0.3125 -0.286467,-0.156249 -0.442717,-0.260416 -0.46875,-0.3125"
           id="path3013"
           style="font-variant:normal;font-stretch:normal;font-family:Just Realize;-inkscape-font-specification:Just Realize" />
      </g>
      <g
         id="text3015"
         style="font-size:40px;font-style:normal;font-weight:normal;line-height:125%;letter-spacing:0px;word-spacing:0px;fill:#000000;fill-opacity:1;stroke:#000000;font-family:Sans">
        <path
           d="m 145.12646,-64.760326 -0.89844,-1.914063 c -0.83335,0.963549 -1.66669,1.731777 -2.5,2.304688 -0.83335,0.572921 -1.60158,0.83334 -2.30469,0.78125 -0.70314,-0.05208 -1.3021,-0.455724 -1.79687,-1.210938 -0.49481,-0.781243 -0.79429,-2.018221 -0.89844,-3.710937 -0.13025,-1.822906 -0.18225,-3.776029 -0.15625,-5.859375 0.0521,-2.083316 0.14322,-4.127585 0.27344,-6.132813 0.13019,-2.031226 0.29946,-3.958308 0.50781,-5.78125 0.20832,-1.822887 0.42967,-3.385386 0.66406,-4.6875 -0.0781,-0.260384 -0.27345,-0.455697 -0.58594,-0.585937 -0.28647,-0.130173 -0.59897,-0.19528 -0.9375,-0.195313 -0.33855,3.3e-5 -0.63803,0.05212 -0.89843,0.15625 -0.26043,0.104199 -0.39064,0.260449 -0.39063,0.46875 l -0.27344,8.007813 c -1.01563,-0.02602 -2.00521,0.273461 -2.96875,0.898437 -0.9375,0.625023 -1.83594,1.458355 -2.69531,2.5 -0.83334,1.015645 -1.60156,2.187519 -2.30469,3.515625 -0.67708,1.328141 -1.26302,2.708348 -1.75781,4.140625 -0.46875,1.406262 -0.83333,2.79949 -1.09375,4.179688 -0.2604,1.380215 -0.3646,2.643235 -0.3125,3.789062 0.0521,1.145837 0.26042,2.109378 0.625,2.890625 0.36458,0.781252 0.92448,1.263022 1.67969,1.445313 1.14583,0.182292 2.14843,0.0651 3.00781,-0.351563 0.85937,-0.416665 1.60156,-1.002602 2.22656,-1.757812 0.625,-0.781247 1.17187,-1.640621 1.64063,-2.578125 0.46874,-0.963536 0.88541,-1.901035 1.25,-2.8125 0.39061,1.640631 1.00259,2.89063 1.83594,3.75 0.83332,0.859378 1.7578,1.36719 2.77343,1.523437 1.01561,0.156253 2.0703,3e-6 3.16407,-0.46875 1.11977,-0.494788 2.16143,-1.263016 3.125,-2.304687 m -18.39844,2.500005 c -0.39063,-0.598955 -0.599,-1.47135 -0.625,-2.617188 -0.026,-1.171868 0.0911,-2.434887 0.35156,-3.789062 0.26042,-1.380198 0.65104,-2.773425 1.17188,-4.179688 0.52083,-1.406235 1.11978,-2.656233 1.79687,-3.75 0.70312,-1.093731 1.45833,-1.953105 2.26563,-2.578125 0.83332,-0.624977 1.67967,-0.820291 2.53906,-0.585937 0.39061,0.859395 0.52082,1.966164 0.39062,3.320312 -0.10417,1.328141 -0.39063,2.721369 -0.85937,4.179688 -0.44272,1.458345 -1.00261,2.890635 -1.67969,4.296875 -0.65105,1.406257 -1.32813,2.617193 -2.03125,3.632812 -0.67709,0.989588 -1.32813,1.705733 -1.95312,2.148438 -0.59897,0.416664 -1.05469,0.390622 -1.36719,-0.07813"
           id="path3020"
           style="font-variant:normal;font-stretch:normal;fill:#000000;stroke:#000000;font-family:Just Realize;-inkscape-font-specification:Just Realize" />
      </g>
      <g
         id="text3022"
         style="font-size:40px;font-style:normal;font-weight:normal;line-height:125%;letter-spacing:0px;word-spacing:0px;fill:#000000;fill-opacity:1;stroke:none;font-family:Sans">
        <path
           d="m 157.2002,-80.872238 c -0.41667,-0.416665 -0.66407,-1.106769 -0.74219,-2.070313 -0.0781,-0.963537 -0.0521,-2.187494 0.0781,-3.671875 0.13021,-1.510408 0.33854,-3.268219 0.625,-5.273437 0.28646,-2.031236 0.61198,-4.296859 0.97657,-6.796875 0.18228,-0.364564 0.41666,-0.61196 0.70312,-0.742188 0.3125,-0.15623 0.59895,-0.195292 0.85938,-0.117187 0.28645,0.07814 0.5078,0.247415 0.66406,0.507812 0.15624,0.234394 0.19531,0.559915 0.11719,0.976563 l -2.03125,15.3125 c -10e-6,0.677085 0.15624,1.028648 0.46875,1.054687 0.33853,0.02604 0.7552,-0.130206 1.25,-0.46875 0.49478,-0.36458 1.04166,-0.846351 1.64062,-1.445312 0.59895,-0.624996 1.15885,-1.236974 1.67969,-1.835938 0.54686,-0.624993 1.01561,-1.171868 1.40625,-1.640625 0.41665,-0.468742 0.69009,-0.7552 0.82031,-0.859375 0.36457,0.1823 0.48176,0.572925 0.35156,1.171875 -0.13022,0.598965 -0.41667,1.276048 -0.85937,2.03125 -0.44272,0.755213 -1.00262,1.51042 -1.67969,2.265625 -0.65105,0.729169 -1.35417,1.328127 -2.10937,1.796875 -0.75522,0.468751 -1.51043,0.729167 -2.26563,0.78125 -0.72917,0.02604 -1.38021,-0.299478 -1.95312,-0.976562 m 1.48437,-23.046872 c 0,-0.3906 0.14323,-0.72914 0.42969,-1.01563 0.28645,-0.28643 0.65104,-0.42966 1.09375,-0.42969 0.4427,3e-5 0.80728,0.14326 1.09375,0.42969 0.28645,0.28649 0.42968,0.62503 0.42969,1.01563 -10e-6,0.39065 -0.14324,0.72919 -0.42969,1.01562 -0.28647,0.28648 -0.65105,0.42971 -1.09375,0.42969 -0.44271,2e-5 -0.8073,-0.14321 -1.09375,-0.42969 -0.28646,-0.28643 -0.42969,-0.62497 -0.42969,-1.01562"
           id="path3027"
           style="font-variant:normal;font-stretch:normal;font-family:Just Realize;-inkscape-font-specification:Just Realize" />
      </g>
      <path
         d="m 131.61177,-31.457548 -0.79549,9.774495 -4.21687,1.078738 -2.67742,2.670184 -2.91682,6.363961 -1.06066,8.4852809 1.5026,2.47487402 3.0936,-0.353553 5.01668,-8.24784502 1.61244,-11.7279219 -0.70711,14.7608539 1.88649,3.203427 3.19454,0.883884 4.54442,-3.203427"
         id="d_path"
         style="fill:none;stroke:#000000;stroke-width:3;stroke-linecap:butt;stroke-linejoin:miter;stroke-miterlimit:4;stroke-opacity:1;stroke-dasharray:none" />
    </g>
  </g>
</svg>
