<?xml version="1.0" encoding="UTF-8" standalone="no"?>
<!-- Created with Inkscape (http://www.inkscape.org/) -->

<svg
   xmlns:dc="http://purl.org/dc/elements/1.1/"
   xmlns:cc="http://creativecommons.org/ns#"
   xmlns:rdf="http://www.w3.org/1999/02/22-rdf-syntax-ns#"
   xmlns:svg="http://www.w3.org/2000/svg"
   xmlns="http://www.w3.org/2000/svg"
   xmlns:inkscape="http://www.inkscape.org/namespaces/inkscape"
   version="1.1"
   width="2.6953125"
   height="31.875"
   id="svg2"
   xml:space="preserve"><metadata
     id="metadata8"><rdf:RDF><cc:Work
         rdf:about=""><dc:format>image/svg+xml</dc:format><dc:type
           rdf:resource="http://purl.org/dc/dcmitype/StillImage" /></cc:Work></rdf:RDF></metadata><defs
     id="defs6" /><g
     transform="matrix(1.25,0,0,-1.25,0,31.875)"
     id="g10"><g
       id="g12"><path
         d="M 0.406,0.531 C 0.32,2.094 0.25,3.836 0.188,5.766 0.125,7.691 0.078,9.734 0.047,11.891 c -0.031,2.156 -0.039,4.39 -0.016,6.703 0.02,2.312 0.071,4.613 0.157,6.906 L 1.562,25.219 2.094,1.562 C 2.133,1.27 2.098,1 1.984,0.75 1.867,0.5 1.719,0.312 1.531,0.188 1.344,0.062 1.145,0.023 0.938,0.062 0.727,0.105 0.551,0.262 0.406,0.531 z"
         inkscape:connector-curvature="0"
         id="path14"
         style="fill:#000000;fill-opacity:1;fill-rule:nonzero;stroke:none" /></g></g></svg>